<svg xmlns="http://www.w3.org/2000/svg" xmlns:xlink="http://www.w3.org/1999/xlink" width="202" height="38" viewBox="0 0 202 38"><defs><style>.a{opacity:0;}.b{fill:url(#a);}.c{fill:url(#b);}</style><linearGradient id="a" x1="0.745" y1="0.309" x2="0.227" y2="1.007" gradientUnits="objectBoundingBox"><stop offset="0" stop-color="#33ccae"/><stop offset="0.04" stop-color="#2fc7ae"/><stop offset="0.25" stop-color="#1aaeac"/><stop offset="0.48" stop-color="#0c9dab"/><stop offset="0.72" stop-color="#0392aa"/><stop offset="1" stop-color="#008faa"/></linearGradient><linearGradient id="b" x1="0" y1="0.5" x2="1" y2="0.5" xlink:href="#a"/></defs><g transform="translate(0 0.883)"><g class="a" transform="translate(0 -0.396)"><rect width="202" height="38" transform="translate(0 -0.487)"/></g><path class="b" d="M48,54.076c-9.366.491-14.418-1.49-17.484-4.609C23.67,42.5,26.751,29.848,13.835,26.385A29.359,29.359,0,0,0,6.872,25.5a16.842,16.842,0,0,1,26.763,3.411.016.016,0,0,0,.006.012q.412.832.809,1.629C45.639,52.995,48,54.076,48,54.076ZM21.458,32.5a13.85,13.85,0,0,0-8.2-5.336,29.218,29.218,0,0,0-6.911-.829,16.843,16.843,0,0,0,8.145,26.845l.02.006c-7.866-9.2.105-22.661,6.971-20.651ZM23.9,37.534l-.127-.059a4.178,4.178,0,0,1-.206.617,4.231,4.231,0,0,1-7.981-2.747c-2.506,3-4.206,6.727-3.49,11.1a16.179,16.179,0,0,0,3.41,6.931c.055.07.11.139.167.208h0A16.864,16.864,0,0,0,30.044,50.1h0C27.055,47.806,23.716,40.2,23.9,37.534Z" transform="translate(-2.284 -18.714)"/><path class="c" d="M759,33.438a8.343,8.343,0,0,1,3.287,3.273,10.57,10.57,0,0,1,0,9.755A8.312,8.312,0,0,1,759,49.752a9.635,9.635,0,0,1-4.751,1.158,7.34,7.34,0,0,1-5.824-2.452v8.82h-4.257V32.484h4.053v2.384a6.6,6.6,0,0,1,2.605-1.941,8.81,8.81,0,0,1,3.423-.647A9.651,9.651,0,0,1,759,33.438ZM757.635,45.7a5.686,5.686,0,0,0,1.516-4.121,5.667,5.667,0,0,0-1.516-4.121,5.153,5.153,0,0,0-3.866-1.567,5.479,5.479,0,0,0-2.756.7,5.052,5.052,0,0,0-1.941,1.993,6.641,6.641,0,0,0,0,5.994,5.044,5.044,0,0,0,1.941,1.992,5.471,5.471,0,0,0,2.756.7A5.146,5.146,0,0,0,757.635,45.7Zm24.725-12.261a8.343,8.343,0,0,1,3.287,3.273,9.725,9.725,0,0,1,1.192,4.87,9.832,9.832,0,0,1-1.192,4.885,8.312,8.312,0,0,1-3.287,3.286,9.638,9.638,0,0,1-4.751,1.158,7.34,7.34,0,0,1-5.824-2.452v8.82h-4.257V32.484h4.053v2.384a6.6,6.6,0,0,1,2.606-1.941,8.81,8.81,0,0,1,3.423-.647,9.649,9.649,0,0,1,4.75,1.158ZM781,45.7a5.686,5.686,0,0,0,1.516-4.121A5.667,5.667,0,0,0,781,37.457a5.153,5.153,0,0,0-3.866-1.567,5.479,5.479,0,0,0-2.756.7,5.051,5.051,0,0,0-1.941,1.993,6.641,6.641,0,0,0,0,5.994,5.044,5.044,0,0,0,1.941,1.992,5.471,5.471,0,0,0,2.756.7A5.147,5.147,0,0,0,781,45.7Zm9.9-20.3h4.257V50.671H790.9Zm13.039,24.318a8.683,8.683,0,0,1-3.457-3.321,9.932,9.932,0,0,1,0-9.621,8.723,8.723,0,0,1,3.457-3.3,11.038,11.038,0,0,1,9.979,0,8.723,8.723,0,0,1,3.457,3.3,9.932,9.932,0,0,1,0,9.621,8.683,8.683,0,0,1-3.457,3.321,11.038,11.038,0,0,1-9.979,0Zm8.855-4.019a5.643,5.643,0,0,0,1.531-4.121,5.641,5.641,0,0,0-1.532-4.121,5.208,5.208,0,0,0-3.882-1.567,5.146,5.146,0,0,0-3.866,1.567,5.678,5.678,0,0,0-1.516,4.121,5.678,5.678,0,0,0,1.516,4.121,5.575,5.575,0,0,0,7.75,0ZM839.22,32.484l-8.514,19.651a9.155,9.155,0,0,1-2.9,4.173,6.913,6.913,0,0,1-4.12,1.206A8.456,8.456,0,0,1,821,57.07a5.928,5.928,0,0,1-2.179-1.226l1.7-3.13a4.612,4.612,0,0,0,1.448.919,4.418,4.418,0,0,0,1.685.344,2.909,2.909,0,0,0,1.856-.58,5.066,5.066,0,0,0,1.345-1.94l.307-.716-7.936-18.259h4.428l5.721,13.453,5.756-13.453ZM858.394,42.94H844.122a4.952,4.952,0,0,0,1.958,3.187,6.4,6.4,0,0,0,3.933,1.175,6.628,6.628,0,0,0,4.938-1.976l2.282,2.623a7.689,7.689,0,0,1-3.1,2.213,12.275,12.275,0,0,1-9.5-.443,8.6,8.6,0,0,1-3.527-3.323,9.352,9.352,0,0,1-1.243-4.819,9.532,9.532,0,0,1,1.206-4.785,8.577,8.577,0,0,1,3.355-3.321,9.8,9.8,0,0,1,4.836-1.192,9.536,9.536,0,0,1,4.752,1.176,8.326,8.326,0,0,1,3.273,3.3,10.009,10.009,0,0,1,1.175,4.921q0,.444-.066,1.26ZM845.81,36.9a5.086,5.086,0,0,0-1.723,3.218h10.32a4.972,4.972,0,0,0-5.143-4.428A5.129,5.129,0,0,0,845.81,36.9Zm-108.981,1.8,4.034,11.91h-5.044l-.921-2.718a9.29,9.29,0,0,1-7.256,3.273,9.017,9.017,0,0,1-9.13-9.3,9.263,9.263,0,0,1,1.83-5.345,9.978,9.978,0,0,1,7.837-3.988,8.963,8.963,0,0,1,5.347,1.69A8.855,8.855,0,0,1,736.828,38.691ZM731.1,45.145a4.528,4.528,0,0,0,1.459-3.268,4.276,4.276,0,0,0-1.9-3.809,4.578,4.578,0,0,0-2.648-.8,4.456,4.456,0,0,0-3.846,1.957,4.691,4.691,0,0,0-.915,2.657,4.191,4.191,0,0,0,1.9,3.774,4.375,4.375,0,0,0,2.613.841,4.658,4.658,0,0,0,3.337-1.347" transform="translate(-656.626 -23.317)"/></g></svg>